{"title":"Hasee To Phansee 2014 [HD DvdScr Rip] [Movies2Fun]","uid":9923380,"size":731118168,"categoryP":"video","categoryS":"movies","magnet":"?xt=urn:btih:2349828d209625bdd3933bdaf4e0d1ec2ffd1e76&amp;dn=Hasee+To+Phansee+2014+%5BHD+DvdScr+Rip%5D+%5BMovies2Fun%5D&amp;tr=udp%3A%2F%2Ftracker.openbittorrent.com%3A80&amp;tr=udp%3A%2F%2Fopen.demonii.com%3A1337&amp;tr=udp%3A%2F%2Ftracker.coppersurfer.tk%3A6969&amp;tr=udp%3A%2F%2Fexodus.desync.com%3A6969","seeders":5,"leechers":0,"uploader":"taztoor","files":5,"time":1397025871,"description":"Hasee To Phansee 2014 Download\n\nGeneral\nFormat : AVI\nFormat/Info : Audio Video Interleave\nFile size : 694 MiB\nDuration : 2h 20mn\nOverall bit rate : 689 Kbps\n\nVideo\nID : 0\nFormat : MPEG-4 Visual\nFormat profile : Advanced Simple@L5\nFormat settings, BVOP : 2\nFormat settings, QPel : No\nFormat settings, GMC : No warppoints\nFormat settings, Matrix : Default (H.263)\nCodec ID : XVID\nCodec ID/Hint : XviD\nDuration : 2h 20mn\nBit rate : 602 Kbps\nWidth : 640 pixels\nHeight : 272 pixels\nDisplay aspect ratio : 2.35:1\nFrame rate : 29.970 fps\nColor space : YUV\nChroma subsampling : 4:2:0\nBit depth : 8 bits\nScan type : Progressive\nCompression mode : Lossy\nBits/(Pixel*Frame) : 0.115\nStream size : 606 MiB (87%)\nWriting library : XviD 1.2.1 (UTC 2008-12-04)\n\nAudio\nID : 1\nFormat : MPEG Audio\nFormat version : Version 1\nFormat profile : Layer 3\nMode : Joint stereo\nMode extension : MS Stereo\nCodec ID : 55\nCodec ID/Hint : MP3\nDuration : 2h 20mn\nBit rate mode : Constant\nBit rate : 80.0 Kbps\nChannel count : 2 channels\nSampling rate : 32.0 KHz\nCompression mode : Lossy\nStream size : 80.6 MiB (12%)\nAlignment : Aligned on interleaves\nInterleave, duration : 133 ms (4.00 video frames)\nInterleave, preload duration : 216 ms\nTitle : VTS_01_1 T80 2_0ch 192Kbps DELAY 0ms\nWriting library : LAME3.99r\nEncoding settings : -m j -V 4 -q 2 -lowpass 13.5 -b 80","torrent":{"xt":"urn:btih:2349828d209625bdd3933bdaf4e0d1ec2ffd1e76","amp;dn":"Hasee+To+Phansee+2014+%5BHD+DvdScr+Rip%5D+%5BMovies2Fun%5D","amp;tr":["udp%3A%2F%2Ftracker.openbittorrent.com%3A80","udp%3A%2F%2Fopen.demonii.com%3A1337","udp%3A%2F%2Ftracker.coppersurfer.tk%3A6969","udp%3A%2F%2Fexodus.desync.com%3A6969"],"infoHash":"2349828d209625bdd3933bdaf4e0d1ec2ffd1e76","infoHashBuffer":{"type":"Buffer","data":[35,73,130,141,32,150,37,189,211,147,59,218,244,224,209,236,47,253,30,118]},"announce":[],"urlList":[]}}